<?xml version="1.0" encoding="utf-8"?>
<!-- Generator: Adobe Illustrator 23.0.1, SVG Export Plug-In . SVG Version: 6.00 Build 0)  -->
<svg version="1.1" id="Layer_1" xmlns="http://www.w3.org/2000/svg" xmlns:xlink="http://www.w3.org/1999/xlink" x="0px" y="0px"
	 viewBox="0 0 1190.55 841.89" style="enable-background:new 0 0 1190.55 841.89;" xml:space="preserve">
<style type="text/css">
	.st0{fill:#FFFFFF;}
</style>
<g id="_x30_sC2FP.tif_1_">
	<g>
		<path class="st0" d="M455.96,458.84c0-6.71,0-13.41,0-20.12c0-1.89-0.32-2.26-2.25-2.16c-5.88,0.32-11.76,0.69-17.64,1.07
			c-5.37,0.34-10.74,0.73-16.11,1.08c-3.7,0.24-7.4,0.44-11.1,0.68c-1.99,0.13-2.56,0.62-2.54,2.63c0.06,6.71,0.16,13.41,0.33,20.11
			c0.11,4.37,0.37,8.73,0.56,13.09c0.05,1.19-0.34,2.05-1.66,2.02c-5.66-0.12-10.79,2.1-16.1,3.57c-2.33,0.64-3,0.05-2.8-2.33
			c0.35-4.25,0.82-8.5,0.87-12.76c0.2-15.6,0.34-31.2,0.29-46.79c-0.02-5.21-0.7-10.42-1.1-15.63c-0.28-3.64-2.18-5.88-5.76-6.7
			c-0.64-0.15-1.27-0.36-1.9-0.54c-0.73-0.21-1.84-0.12-1.62-1.31c0.19-1.02,0.32-2.09,1.96-2.16c9.44-0.38,18.87-0.9,28.31-1.36
			c1.21-0.06,2.08,1.03,1.42,2.03c-2.48,3.73-1.99,8.01-2.23,12.09c-0.39,6.59-0.36,13.2-0.49,19.8c-0.04,2.06,0.88,3.16,2.92,3.51
			c8.35,1.41,16.79,1.46,25.21,1.37c5.89-0.06,11.77-0.49,17.66-0.78c0.71-0.03,1.53,0.01,2.08-0.33c0.67-0.42,1.57-1.22,1.57-1.85
			c-0.07-8.63-0.26-17.27-0.46-25.9c-0.03-1.31-0.27-2.62-0.35-3.94c-0.06-1.11,0.27-1.92,1.56-2.19
			c5.79-1.24,11.57-2.55,17.36-3.81c1.2-0.26,2.19,0.68,2.05,1.93c-1.98,17.57-1.56,35.2-1.46,52.82c0.02,4.21,0.4,8.42,0.59,12.63
			c0.04,0.92,0.38,1.53,1.29,1.82c0.38,0.12,0.72,0.36,1.09,0.55c1.74,0.87,1.57,0.8,0.78,2.62c-1.02,2.36-1.75,4.84-2.59,7.28
			c-0.13,0.38-0.25,0.77-0.33,1.17c-0.44,2.1-1.6,3.29-3.76,3.98c-4.38,1.4-8.65,3.17-12.97,4.77c-2.09,0.77-3.34-0.15-3.25-2.31
			c0.26-6.55,0.48-13.1,0.72-19.64C456.04,458.84,456,458.84,455.96,458.84z"/>
		<path class="st0" d="M741.16,422.08c0.04-0.7,0.14-1.39,0.11-2.09c-0.03-0.83,0.38-1.03,1.1-1.06c5.73-0.29,11.45-0.75,17.19-0.89
			c6.95-0.16,13.91-0.19,20.86,0c5.07,0.14,10.09,0.86,14.86,2.82c8.59,3.53,9.3,12.41,4.82,18.34c-2.54,3.36-5.88,5.71-9.6,7.55
			c-1.21,0.59-1.42,1.09-0.67,2.27c5.37,8.39,11.09,16.52,17.61,24.05c1.66,1.92,3.88,3.36,5.81,5.06c0.38,0.34,0.94,1.08,0.83,1.25
			c-0.37,0.56-0.99,1.28-1.55,1.31c-1.61,0.09-3.25-0.04-4.86-0.24c-4.27-0.55-8.53-1.16-12.78-1.82c-0.71-0.11-1.45-0.49-2.01-0.95
			c-4.86-4-8.74-8.91-12.5-13.89c-2.69-3.56-5.19-7.26-7.69-10.96c-0.58-0.86-1.16-1.12-2.11-0.94c-1.34,0.25-2.7,0.43-4.12,0.64
			c-0.05,0.16-0.16,0.35-0.16,0.53c0.17,7.61,0.32,15.23,0.56,22.84c0.07,2.22,0.04,2.2-2.24,2.51c-4.81,0.65-9.6,1.48-14.4,2.27
			c-1.58,0.26-1.97-0.08-1.85-1.62c0.3-4.05,0.76-8.1,0.79-12.15c0.11-11.73,0.07-23.46,0.03-35.19c-0.01-1.51-0.34-3.02-0.53-4.52
			c-0.32-2.47-1.74-3.91-4.16-4.39C743.41,422.59,742.33,422.34,741.16,422.08z M766.28,423.18c0,1.25,0,2.31,0,3.37
			c0,6.04,0,12.09,0,18.13c0,0.73-0.05,1.48,0.93,1.62c4.75,0.7,9.33,0.44,13.4-2.47c3.55-2.53,4.57-6.19,4.41-10.29
			c-0.17-4.16-2.5-6.87-6.2-8.43C774.87,423.47,770.71,423.08,766.28,423.18z"/>
		<path class="st0" d="M610.11,421.87c0.09-1.06,0.17-1.96,0.26-2.96c4.11-0.3,8.1-0.69,12.1-0.85c6.95-0.27,13.91-0.55,20.86-0.54
			c5.98,0.01,11.97,0.35,17.77,2.11c5.5,1.67,9.46,4.84,10.26,10.91c0.82,6.2-1.16,11.3-6.2,15.1c-4.83,3.63-10.43,5.32-16.31,6.17
			c-2.65,0.38-5.35,0.44-8.03,0.67c-0.78,0.07-1.21-0.18-1.41-0.98c-0.3-1.2-0.71-2.38-1.1-3.65c2-0.33,3.75-0.51,5.45-0.92
			c9.1-2.2,11.1-9.61,9.39-15.8c-0.91-3.29-3.26-5.28-6.34-6.5c-3.55-1.41-7.26-1.75-11.29-1.75c0,0.6,0,1.13,0,1.67
			c0.09,15.19,0.17,30.37,0.28,45.56c0.02,2.13,0.16,4.26,0.27,6.39c0.07,1.31-0.58,1.96-1.83,2.13c-4.92,0.65-9.84,1.3-14.75,1.96
			c-1.46,0.2-2.02-0.33-1.99-1.79c0.28-14.16,0.58-28.32,0.78-42.48c0.04-2.73-0.27-5.47-0.52-8.2c-0.31-3.3-1.54-4.68-4.71-5.52
			C612.14,422.33,611.21,422.13,610.11,421.87z"/>
		<path class="st0" d="M516.63,452.43c0,5.93,0,11.7,0,17.64c10.61,1.36,21.15,1.85,31.82,0.4c0.33,1.16,0.08,2.03-0.85,2.93
			c-4.31,4.19-9.56,6.03-15.44,6.14c-7.67,0.14-15.34,0.03-23.01,0.15c-2.72,0.04-5.45,0.31-8.14,0.73
			c-1.84,0.29-2.58-0.32-2.51-2.18c0.42-11.77,0.78-23.55,0.91-35.33c0.05-4.5-0.51-9.01-0.85-13.51c-0.16-2.1-1.45-3.27-3.43-3.73
			c-1.57-0.36-3.15-0.68-4.67-1.01c-0.36-1.24,0.03-1.97,1.1-2.54c1.43-0.77,2.85-1.59,4.12-2.59c1.86-1.46,3.88-1.65,6.13-1.49
			c11.97,0.85,23.96,1.03,35.95,0.53c2.02-0.08,4.03-0.46,6.03-0.78c1.62-0.26,2.06,0.02,2.02,1.6c-0.08,3.61-0.24,7.21-0.24,10.82
			c0,1.19-0.79,1.37-1.54,1.75c-0.82,0.41-1.3,0.01-1.8-0.6c-1.57-1.93-3.1-3.91-4.81-5.7c-0.62-0.65-1.75-1.22-2.6-1.16
			c-6.02,0.41-12.03,0.99-18.16,1.53c-0.03,0.45-0.09,0.89-0.09,1.33c-0.01,4.83,0.03,9.66-0.03,14.48
			c-0.01,1.26,0.31,1.86,1.69,1.85c7.11-0.03,14.21-0.02,21.32,0.02c0.83,0,2.12,0,2.4,0.48c0.63,1.06-0.45,1.83-1.21,2.47
			c-1.77,1.47-3.16,3.58-5.67,3.88c-4.98,0.6-9.98,1.09-14.98,1.62C518.99,452.26,517.87,452.33,516.63,452.43z"/>
		<path class="st0" d="M677.98,424.64c-0.36-1.24,0.03-1.97,1.1-2.54c1.43-0.77,2.85-1.59,4.12-2.59c1.86-1.46,3.88-1.65,6.13-1.49
			c11.97,0.85,23.96,1.03,35.95,0.54c1.97-0.08,3.93-0.41,5.88-0.74c1.87-0.32,2.21-0.12,2.17,1.71c-0.08,3.56-0.24,7.11-0.24,10.67
			c0,1.19-0.78,1.37-1.54,1.75c-0.82,0.41-1.3,0.02-1.8-0.59c-1.57-1.93-3.09-3.92-4.82-5.7c-0.65-0.67-1.84-1.22-2.75-1.16
			c-5.97,0.4-11.93,0.99-18.02,1.52c-0.03,0.45-0.09,0.89-0.09,1.32c-0.01,4.83,0.03,9.66-0.02,14.48c-0.01,1.26,0.3,1.86,1.69,1.85
			c7.11-0.03,14.21-0.02,21.32,0.02c0.83,0,2.12,0,2.41,0.47c0.63,1.06-0.44,1.83-1.21,2.47c-1.77,1.47-3.16,3.58-5.67,3.89
			c-4.98,0.6-9.98,1.09-14.98,1.62c-1.11,0.12-2.22,0.19-3.44,0.29c0,5.86,0,11.67,0,17.65c10.57,1.35,21.12,1.84,31.78,0.39
			c0.33,1.16,0.08,2.03-0.84,2.93c-4.36,4.23-9.66,6.06-15.59,6.15c-7.72,0.12-15.44,0.01-23.16,0.13
			c-2.67,0.04-5.34,0.41-7.99,0.75c-1.87,0.24-2.37-0.15-2.32-2.04c0.32-11.83,0.73-23.66,0.87-35.49c0.05-4.5-0.51-9.01-0.84-13.51
			c-0.16-2.1-1.44-3.28-3.43-3.73C681.09,425.29,679.51,424.97,677.98,424.64z"/>
		<path class="st0" d="M560.53,479.16c0-0.31-0.12-0.68,0.02-0.89c1.71-2.5,1.32-5.4,1.35-8.12c0.14-12.64,0.11-25.28,0.07-37.92
			c-0.01-1.86-0.35-3.73-0.6-5.59c-0.24-1.86-1.19-3.2-3.06-3.77c-1.15-0.36-2.3-0.73-3.46-1.09c-0.38-2.29,0.13-2.95,2.35-3.03
			c7.66-0.27,15.32-0.53,22.99-0.77c0.49-0.02,1.35,0.16,1.42,0.41c0.13,0.47-0.04,1.22-0.37,1.58c-1.19,1.3-1.19,2.9-1.21,4.43
			c-0.17,12.18-0.29,24.37-0.39,36.55c-0.02,2.54,0.1,5.08,0.13,7.62c0.01,0.97,0.25,1.47,1.42,1.64
			c9.09,1.29,18.19,1.53,27.32,0.47c0.29-0.03,0.57-0.04,0.92-0.05c0.34,1.16,0.08,2-0.81,2.74c-1.57,1.29-2.91,2.98-4.67,3.87
			c-2.01,1.03-4.34,1.72-6.59,1.95c-12.11,1.25-24.24,0.54-36.37,0.1C560.84,479.28,560.7,479.21,560.53,479.16z"/>
	</g>
</g>
<g id="o3Dr71.tif_2_">
	<g>
		<path class="st0" d="M502.04,362.31c-0.24,0.5-0.72,1.11-0.81,1.78c-0.21,1.53-0.3,3.09-0.3,4.64c0.01,4.91-0.03,9.82,0.17,14.72
			c0.23,5.46,3.75,8.87,9.22,9.06c1.7,0.06,3.5-0.04,5.12-0.53c3.55-1.07,5.25-3.82,5.8-7.37c0.75-4.89,0.26-9.8,0.09-14.7
			c-0.07-2.05-0.34-4.1-0.45-6.15c-0.02-0.3,0.33-0.8,0.61-0.89c1.19-0.4,2.41-0.67,3.78-1.04c0.03,0.32,0.09,0.62,0.08,0.91
			c-0.23,4.25-0.47,8.5-0.71,12.74c-0.18,3.24-0.11,6.52-0.62,9.7c-0.92,5.86-5.24,9.71-11.13,10.38c-2.85,0.33-5.7,0.24-8.5-0.39
			c-5.24-1.17-8.5-4.78-8.91-10.17c-0.3-3.88-0.32-7.78-0.45-11.68c-0.08-2.31-0.11-4.62-0.22-6.92c-0.1-2.06-0.4-2.37-2.36-2.91
			c-0.32-0.09-0.6-0.37-0.89-0.56c0.32-0.21,0.63-0.59,0.95-0.59C495.69,362.3,498.86,362.31,502.04,362.31z"/>
		<path class="st0" d="M676.34,371.96c-0.15,0.48-0.17,0.75-0.3,0.92c-3.4,4.54-5.63,9.72-8.02,14.8c-0.92,1.95-1.57,4.02-2.44,5.99
			c-0.21,0.48-0.81,0.84-1.29,1.14c-0.59,0.37-1.25,0.62-1.88,0.92c-0.25-0.66-0.49-1.33-0.75-1.98c-1.37-3.44-2.75-6.87-4.23-10.56
			c-0.36,0.62-0.59,0.96-0.77,1.32c-1.54,3.17-3.07,6.35-4.62,9.51c-0.1,0.21-0.27,0.43-0.46,0.53c-0.82,0.44-1.66,0.83-2.62,1.3
			c-0.15-0.33-0.31-0.64-0.43-0.95c-2.32-6.28-4.61-12.56-6.97-18.82c-0.51-1.35-1.18-2.68-2.91-2.89
			c-0.14-0.02-0.39-0.44-0.34-0.52c0.13-0.21,0.4-0.47,0.61-0.47c2.59-0.03,5.18-0.02,7.79-0.02c-0.83,1.02-0.04,2.04,0.31,3.06
			c1.47,4.33,3,8.64,4.5,12.95c0.08,0.24,0.18,0.46,0.35,0.87c1.14-2.11,2.11-4.15,3.31-6.06c0.88-1.41,1.02-2.63,0.14-4.06
			c-0.67-1.1-1.1-2.35-1.7-3.49c-0.58-1.11-1.04-2.39-2.77-2.3c-0.01-0.13-0.01-0.27-0.02-0.4c0.3-0.21,0.59-0.58,0.91-0.6
			c1.58-0.11,3.18-0.19,4.76-0.15c0.41,0.01,0.98,0.43,1.17,0.81c0.58,1.15,1.02,2.38,1.6,3.81c0.69-1.4,1.34-2.62,1.89-3.88
			c0.25-0.58,0.55-0.84,1.2-0.8c0.93,0.05,1.87,0.01,3.06,0.01c-0.26,0.49-0.39,0.83-0.6,1.1c-1.29,1.69-2.62,3.35-3.89,5.05
			c-0.2,0.27-0.35,0.78-0.23,1.07c1.31,3.23,2.68,6.44,4.11,9.83c0.21-0.35,0.37-0.56,0.46-0.79c2.14-5.19,4.26-10.39,6.41-15.57
			c0.12-0.29,0.5-0.64,0.77-0.66C673.68,371.92,674.91,371.96,676.34,371.96z"/>
		<path class="st0" d="M561.18,373.21c-0.16-0.79,0.18-1.01,0.81-1.01c5.66-0.01,11.34-0.22,16.99,0.01
			c6.29,0.26,9.87,4.63,9.4,10.93c-0.34,4.67-2.22,8.4-6.53,10.61c-2.66,1.37-5.55,1.76-8.51,1.66c-2.52-0.09-5.04-0.3-7.56-0.41
			c-0.62-0.03-1.24,0.15-1.98,0.24c0.1-1.5,0.27-2.85,0.27-4.21c0-4.95,0-9.89-0.11-14.84c-0.05-2.13-0.26-2.25-2.27-2.8
			C561.54,373.34,561.37,373.27,561.18,373.21z M569.45,382.69c0,2.2-0.03,4.41,0.01,6.61c0.06,3.15-0.2,4.02,4.2,4.29
			c0.14,0.01,0.29,0.01,0.43,0c3.83-0.09,6.46-2.05,7.67-5.69c0.76-2.28,0.84-4.63,0.56-6.96c-0.47-3.92-2.81-6.4-6.68-7.02
			c-1.66-0.27-3.38-0.14-5.06-0.24c-0.94-0.06-1.16,0.36-1.15,1.21C569.48,377.49,569.45,380.09,569.45,382.69z"/>
		<path class="st0" d="M757.79,395.21c0.06-5.01,0.14-9.88,0.16-14.74c0.01-1.59-0.1-3.18-0.2-4.76c-0.09-1.47-0.44-1.84-1.88-2.24
			c-0.4-0.11-1.11-0.01-0.89-0.73c0.08-0.26,0.63-0.51,0.97-0.52c4.87-0.11,9.75-0.22,14.62-0.23c1.43,0,2.89,0.18,4.29,0.5
			c4.32,0.97,6.67,3.66,7.22,8.44c0.59,5.13-1.46,10.32-6.38,12.8c-2.64,1.33-5.48,1.77-8.4,1.68c-2.56-0.08-5.11-0.3-7.67-0.4
			C759.02,394.98,758.38,395.14,757.79,395.21z M763.25,382.79c0,2.17,0,4.33,0,6.5c0,0.04,0,0.07,0,0.11
			c0.1,2.96-0.21,3.87,3.98,4.18c0.22,0.02,0.43,0.02,0.65,0.02c3.83-0.08,6.46-2.04,7.68-5.68c0.76-2.28,0.84-4.62,0.57-6.96
			c-0.46-3.91-2.81-6.41-6.67-7.03c-1.69-0.27-3.45-0.15-5.17-0.24c-0.83-0.05-1.05,0.32-1.04,1.09
			C763.27,377.44,763.25,380.12,763.25,382.79z"/>
		<path class="st0" d="M692.56,371.18c1.95,0.29,3.95,0.39,5.84,0.89c4.35,1.16,6.79,4.42,7.06,9.13c0.13,2.25-0.15,4.46-1,6.57
			c-1.77,4.43-5.47,6.44-9.77,7.55c-2.89,0.74-5.86,0.79-8.76-0.06c-4.7-1.38-7.76-5.57-7.97-10.56
			c-0.32-7.52,4.49-11.8,11.13-12.94c1.13-0.19,2.29-0.27,3.43-0.4C692.54,371.3,692.55,371.24,692.56,371.18z M699.86,383.03
			c-0.44-1.72-0.73-3.81-1.51-5.71c-1.21-2.94-3.76-4.06-6.81-4.01c-3.1,0.05-5.59,1.35-6.73,4.35c-1.6,4.19-1.33,8.38,0.84,12.3
			c1.52,2.75,4.07,3.92,7.18,3.63c3.15-0.29,5.16-2.11,6.01-5.1C699.3,386.84,699.48,385.11,699.86,383.03z"/>
		<path class="st0" d="M630.09,383.28c2.96,4.09,5.36,8.67,9.66,12c-0.4,0.13-0.71,0.33-0.99,0.3c-1.79-0.2-3.59-0.36-5.35-0.72
			c-0.6-0.12-1.21-0.68-1.62-1.19c-2.06-2.55-4.1-5.12-6.06-7.75c-1.18-1.59-1.35-1.73-3.36-1.16c0,3.27,0,6.53,0,9.78
			c-1.84,0.33-3.69,0.66-5.7,1.02c0.1-1.62,0.26-3.15,0.26-4.68c0.02-4.98,0.02-9.96-0.07-14.94c-0.03-1.73-0.45-2.03-2.15-2.46
			c-0.29-0.08-0.53-0.38-0.79-0.58c0.29-0.17,0.58-0.48,0.88-0.49c4.07-0.17,8.15-0.39,12.22-0.39c1.67,0,3.39,0.33,4.98,0.83
			c3.74,1.18,4.6,4.83,1.81,7.61C632.77,381.51,631.44,382.28,630.09,383.28z M622.26,373.51c0,3.01,0.02,5.71-0.01,8.41
			c-0.01,0.68,0.41,0.84,0.88,0.82c1.25-0.08,2.54-0.06,3.72-0.42c2.19-0.66,3.14-2.28,3.04-4.65c-0.08-1.82-1.13-3.03-3.34-3.55
			C625.19,373.8,623.79,373.72,622.26,373.51z"/>
		<path class="st0" d="M724.86,383.32c2.89,4.04,5.33,8.58,9.6,11.97c-0.4,0.12-0.74,0.32-1.05,0.28c-1.75-0.19-3.52-0.36-5.24-0.71
			c-0.6-0.12-1.22-0.66-1.63-1.17c-2.06-2.55-4.11-5.12-6.06-7.75c-1.21-1.64-1.27-1.74-3.38-1.19c0,3.26,0,6.52,0,9.79
			c-1.82,0.33-3.67,0.66-5.67,1.02c0-0.4,0-0.74,0-1.08c0.07-6.13,0.19-12.27,0.18-18.4c0-1.91-0.4-2.17-2.24-2.59
			c-0.73-0.17-0.73-0.17-0.56-1.06c5.51-0.4,11.04-0.96,16.57-0.01c0.63,0.11,1.26,0.33,1.85,0.57c3.13,1.3,3.95,4.64,1.64,7.12
			C727.75,381.29,726.31,382.17,724.86,383.32z M716.99,373.51c0,3.01-0.02,5.78,0.03,8.54c0,0.23,0.5,0.67,0.74,0.66
			c1.38-0.1,2.84-0.08,4.12-0.53c2.08-0.72,2.86-2.31,2.72-4.64c-0.11-1.69-1.17-2.91-3.25-3.41
			C719.98,373.81,718.54,373.72,716.99,373.51z"/>
		<path class="st0" d="M530.27,372.8c0.33-0.23,0.65-0.6,1-0.65c1.89-0.24,3.79-0.44,5.69-0.55c0.37-0.02,0.85,0.31,1.14,0.62
			c4.48,4.76,8.93,9.54,13.39,14.32c0.44,0.47,0.86,0.97,1.29,1.46c0.09-0.05,0.17-0.09,0.26-0.14c0.02-0.3,0.08-0.6,0.07-0.89
			c-0.14-4.47-0.26-8.94-0.44-13.41c-0.03-0.74,0.1-1.12,0.92-1.22c1.1-0.14,2.19-0.44,3.33-0.55c-1.2,2.37-1.05,4.84-1.13,7.21
			c-0.18,5.3-0.1,10.6-0.09,15.91c0,0.88-0.18,1.15-1.11,0.95c-1.02-0.22-1.89-0.56-2.63-1.33c-4.55-4.75-9.12-9.47-13.68-14.2
			c-0.64-0.66-1.26-1.35-2.09-2.25c0,0.64-0.01,0.98,0,1.32c0.12,4.94,0.25,9.89,0.35,14.83c0.01,0.28-0.21,0.78-0.4,0.83
			c-1.08,0.23-2.19,0.36-3.43,0.55c0.03-0.45,0.03-0.87,0.08-1.27c0.75-5.92,1.14-11.85,1.01-17.82c-0.05-2.05-0.59-2.66-2.56-3.17
			c-0.27-0.07-0.54-0.14-0.81-0.22C530.38,373.01,530.32,372.91,530.27,372.8z"/>
		<path class="st0" d="M609.7,381.89c-0.31,1.03-1.66,2.11-2.64,2.21c-2.33,0.24-4.65,0.48-7.04,0.73c0,2.35,0,4.68,0,7.13
			c4.05,0.58,8.09,0.8,12.41,0.09c-0.24,0.44-0.32,0.74-0.51,0.91c-1.58,1.45-3.45,2.18-5.6,2.18c-2.56,0.01-5.13-0.02-7.69,0.02
			c-1.15,0.02-2.3,0.1-3.43,0.26c-0.64,0.09-0.85-0.02-0.83-0.68c0.13-4.76,0.26-9.52,0.34-14.29c0.02-1.15-0.11-2.31-0.18-3.46
			c-0.12-2-0.44-2.35-2.38-2.68c-0.31-0.05-0.58-0.28-0.88-0.42c0.21-0.22,0.38-0.48,0.62-0.66c1.34-1.03,2.78-1.26,4.51-1.21
			c4.61,0.14,9.23-0.08,13.84-0.11c0.24,0,0.68,0.34,0.69,0.53c0.06,1.22,0.05,2.46,0,3.68c-0.01,0.26-0.22,0.6-0.43,0.74
			c-0.12,0.08-0.58-0.11-0.68-0.3c-1.26-2.35-3.24-2.71-5.65-2.25c-1.16,0.22-2.38,0.14-3.56,0.29c-0.25,0.03-0.64,0.45-0.65,0.7
			c-0.05,1.91-0.01,3.83-0.04,5.74c-0.02,0.78,0.41,0.89,1.02,0.88c2.64-0.02,5.27-0.03,7.91-0.04
			C609.12,381.89,609.37,381.89,609.7,381.89z"/>
		<path class="st0" d="M800.9,376.5c-0.34-0.25-0.76-0.4-0.9-0.69c-1.21-2.52-5.66-2.75-7.41-1.51c-1.78,1.26-1.79,3.91,0.12,4.98
			c1.34,0.75,2.84,1.19,4.28,1.75c0.6,0.23,1.24,0.39,1.83,0.64c4.6,1.88,5.68,6.4,2.43,10.2c-2.03,2.38-4.66,3.68-7.77,3.69
			c-2.18,0.01-4.36-0.38-6.54-0.6c-0.68-0.07-0.9-0.43-0.73-1.12c0.24-0.98,0.38-1.98,0.62-2.96c0.06-0.24,0.35-0.5,0.59-0.6
			c0.13-0.06,0.54,0.17,0.57,0.31c0.31,1.79,1.73,2.28,3.16,2.71c1.37,0.41,2.78,0.44,4.15-0.09c1.44-0.56,2.41-1.53,2.58-3.16
			c0.17-1.68-0.64-2.78-2.1-3.41c-1.42-0.62-2.88-1.12-4.31-1.71c-1.97-0.81-3.81-1.78-4.46-4.05c-0.84-2.95,0.36-5.93,3.11-7.64
			c2.73-1.7,5.73-1.76,8.79-1.4c0.82,0.1,1.61,0.36,2.43,0.51c0.68,0.12,0.82,0.46,0.6,1.07C801.6,374.35,801.29,375.31,800.9,376.5
			z"/>
		<path class="st0" d="M743.61,372.19c-0.13,1.56-0.37,3.18-0.39,4.8c-0.05,4.94-0.02,9.88-0.02,15.04c1.96,0.16,3.84,0.4,5.73,0.44
			c1.89,0.04,3.78-0.13,5.91-0.22c-1.15,1.4-2.29,2.57-4.07,2.67c-2.59,0.14-5.19,0.19-7.78,0.24c-1.91,0.04-3.82,0.01-5.76,0.01
			c0.93-5.18,0.46-10.26,0.56-15.31c0.02-1.08-0.04-2.17-0.13-3.24c-0.23-2.65-0.24-2.65-2.87-3.64c0.37-0.32,0.64-0.75,0.91-0.75
			C738.4,372.17,741.1,372.19,743.61,372.19z"/>
	</g>
</g>
</svg>
